<svg viewBox="0 0 460 242" xmlns="http://www.w3.org/2000/svg" role="img" aria-label="EWPC logo">
  <rect x="10" y="8" width="120" height="120" rx="28" fill="#1a2a6c"/>
  <rect x="156" y="8" width="120" height="120" rx="28" fill="#ffcc4d"/>
  <rect x="302" y="8" width="120" height="120" rx="28" fill="#5b3b8c"/>
  <path d="M70.0,34.0L79.1,58.5L105.2,59.6L84.7,75.8L91.7,100.9L70.0,86.5L48.3,100.9L55.3,75.8L34.8,59.6L60.9,58.5Z" fill="#fff" stroke="#fff" stroke-width="5" stroke-linejoin="round"/>
  <g transform="translate(172.0,95.0)"><path d="M6.9,-31.9Q10.6,-32.1 12.4,-33.5Q14.1,-35.0 14.1,-37.8Q14.1,-39.8 13.4,-45.9Q13.3,-46.5 12.9,-49.8Q12.5,-53.1 12.5,-55.8Q12.5,-62.2 16.5,-65.9Q20.4,-69.5 27.1,-69.5L32.5,-69.5L32.5,-58.8L29.6,-58.8Q27.1,-58.8 26.1,-57.8Q25.0,-56.7 25.0,-54.5Q25.0,-52.8 25.6,-46.9Q26.3,-39.5 26.3,-37.2Q26.3,-33.1 24.3,-30.3Q22.3,-27.6 18.2,-26.8L18.2,-26.7Q22.3,-25.8 24.3,-23.1Q26.3,-20.4 26.3,-16.2Q26.3,-13.9 25.6,-6.5Q25.0,-0.8 25.0,1.0Q25.0,3.2 26.1,4.3Q27.1,5.4 29.6,5.4L32.5,5.4L32.5,16.0L27.1,16.0Q20.4,16.0 16.5,12.4Q12.5,8.8 12.5,2.3Q12.5,-0.4 12.9,-3.7Q13.3,-7.0 13.4,-7.6Q14.1,-13.7 14.1,-15.7Q14.1,-18.3 12.4,-19.9Q10.6,-21.4 6.9,-21.6L6.9,-31.9" fill="#131f54"/></g>
  <g transform="translate(233.0,95.0)"><path d="M31.0,-21.6Q27.3,-21.4 25.5,-19.9Q23.8,-18.3 23.8,-15.7Q23.8,-13.7 24.5,-7.6Q24.6,-7.0 25.0,-3.7Q25.4,-0.4 25.4,2.3Q25.4,8.8 21.4,12.4Q17.5,16.0 10.9,16.0L5.4,16.0L5.4,5.4L8.4,5.4Q10.8,5.4 11.9,4.3Q12.9,3.2 12.9,1.0Q12.9,-0.8 12.3,-6.5Q11.6,-13.9 11.6,-16.2Q11.6,-20.4 13.6,-23.1Q15.7,-25.8 19.8,-26.7L19.8,-26.8Q15.7,-27.6 13.6,-30.3Q11.6,-33.1 11.6,-37.2Q11.6,-39.5 12.3,-46.9Q12.9,-52.8 12.9,-54.5Q12.9,-56.7 11.9,-57.8Q10.8,-58.8 8.4,-58.8L5.4,-58.8L5.4,-69.5L10.9,-69.5Q17.5,-69.5 21.4,-65.9Q25.4,-62.2 25.4,-55.8Q25.4,-53.1 25.0,-49.8Q24.6,-46.5 24.5,-45.9Q23.8,-39.8 23.8,-37.8Q23.8,-35.0 25.5,-33.5Q27.3,-32.1 31.0,-31.9L31.0,-21.6" fill="#131f54"/></g>
  <path d="M326.0,100.0 L324.0,70.0 L345.0,81.0 L362.0,52.0 L379.0,81.0 L400.0,70.0 L398.0,100.0 Z" fill="#fff" stroke="#fff" stroke-width="7" stroke-linejoin="round"/>
  <circle cx="322.0" cy="60.0" r="6" fill="#fff"/>
  <circle cx="362.0" cy="42.0" r="6" fill="#fff"/>
  <circle cx="402.0" cy="60.0" r="6" fill="#fff"/>
  <path d="M61.4,189.8Q61.4,191.8 61.1,194.0L28.6,194.0Q29.0,198.4 31.4,200.7Q33.9,203.0 37.5,203.0Q42.9,203.0 45.0,198.5L60.3,198.5Q59.1,203.1 56.0,206.8Q53.0,210.5 48.4,212.6Q43.7,214.7 38.0,214.7Q31.1,214.7 25.8,211.7Q20.4,208.8 17.4,203.3Q14.3,197.9 14.3,190.6Q14.3,183.3 17.3,177.8Q20.3,172.3 25.7,169.4Q31.1,166.5 38.0,166.5Q44.8,166.5 50.1,169.3Q55.4,172.2 58.4,177.5Q61.4,182.7 61.4,189.8M46.7,186.0Q46.7,182.3 44.2,180.2Q41.6,178.0 37.9,178.0Q34.3,178.0 31.8,180.1Q29.3,182.2 28.7,186.0L46.7,186.0M136.2,167.1L123.6,214.0L107.7,214.0L100.3,183.6L92.6,214.0L76.8,214.0L64.1,167.1L78.4,167.1L85.1,200.6L93.0,167.1L108.2,167.1L116.2,200.5L122.7,167.1L136.2,167.1M156.1,173.8Q158.2,170.5 161.8,168.5Q165.5,166.5 170.5,166.5Q176.3,166.5 181.0,169.4Q185.7,172.3 188.4,177.8Q191.2,183.3 191.2,190.5Q191.2,197.7 188.4,203.2Q185.7,208.7 181.0,211.7Q176.3,214.7 170.5,214.7Q165.6,214.7 161.9,212.7Q158.2,210.6 156.1,207.5L156.1,236.3L141.7,236.3L141.7,167.1L156.1,167.1L156.1,173.8M176.6,190.5Q176.6,185.1 173.6,182.0Q170.6,179.0 166.2,179.0Q161.9,179.0 159.0,182.1Q156.0,185.2 156.0,190.6Q156.0,195.9 159.0,199.1Q161.9,202.2 166.2,202.2Q170.5,202.2 173.5,199.0Q176.6,195.9 176.6,190.5M195.9,190.6Q195.9,183.3 198.9,177.8Q201.8,172.3 207.2,169.4Q212.5,166.5 219.4,166.5Q228.2,166.5 234.1,171.1Q240.1,175.7 241.9,184.1L226.6,184.1Q224.7,178.7 219.1,178.7Q215.2,178.7 212.8,181.8Q210.5,184.8 210.5,190.6Q210.5,196.3 212.8,199.4Q215.2,202.4 219.1,202.4Q224.7,202.4 226.6,197.0L241.9,197.0Q240.1,205.3 234.1,210.0Q228.1,214.7 219.4,214.7Q212.5,214.7 207.2,211.7Q201.8,208.8 198.9,203.3Q195.9,197.9 195.9,190.6" fill="#131f54"/>
</svg>