<svg viewBox="0 0 320 282" xmlns="http://www.w3.org/2000/svg" role="img" aria-label="EWPC logo">
<g transform="translate(160,98)">
<path d="M0.00,-61.60L2.12,-55.92L8.18,-55.66L3.44,-51.88L5.05,-46.04L0.00,-49.39L-5.05,-46.04L-3.44,-51.88L-8.18,-55.66L-2.12,-55.92Z" fill="#fdba12"/>
<path d="M26.50,-54.50L28.62,-48.82L34.68,-48.56L29.94,-44.78L31.55,-38.94L26.50,-42.29L21.45,-38.94L23.06,-44.78L18.32,-48.56L24.38,-48.82Z" fill="#b22c1b"/>
<path d="M45.90,-35.10L48.02,-29.42L54.08,-29.16L49.33,-25.38L50.95,-19.54L45.90,-22.89L40.84,-19.54L42.46,-25.38L37.72,-29.16L43.78,-29.42Z" fill="#4c83c3"/>
<path d="M53.00,-8.60L55.12,-2.92L61.18,-2.66L56.44,1.12L58.05,6.96L53.00,3.61L47.95,6.96L49.56,1.12L44.82,-2.66L50.88,-2.92Z" fill="#fdba12"/>
<path d="M45.90,17.90L48.02,23.58L54.08,23.84L49.33,27.62L50.95,33.46L45.90,30.11L40.84,33.46L42.46,27.62L37.72,23.84L43.78,23.58Z" fill="#b22c1b"/>
<path d="M26.50,37.30L28.62,42.98L34.68,43.24L29.94,47.02L31.55,52.86L26.50,49.51L21.45,52.86L23.06,47.02L18.32,43.24L24.38,42.98Z" fill="#4c83c3"/>
<path d="M0.00,44.40L2.12,50.08L8.18,50.34L3.44,54.12L5.05,59.96L0.00,56.61L-5.05,59.96L-3.44,54.12L-8.18,50.34L-2.12,50.08Z" fill="#fdba12"/>
<path d="M-26.50,37.30L-24.38,42.98L-18.32,43.24L-23.06,47.02L-21.45,52.86L-26.50,49.51L-31.55,52.86L-29.94,47.02L-34.68,43.24L-28.62,42.98Z" fill="#b22c1b"/>
<path d="M-45.90,17.90L-43.78,23.58L-37.72,23.84L-42.46,27.62L-40.84,33.46L-45.90,30.11L-50.95,33.46L-49.33,27.62L-54.08,23.84L-48.02,23.58Z" fill="#4c83c3"/>
<path d="M-53.00,-8.60L-50.88,-2.92L-44.82,-2.66L-49.56,1.12L-47.95,6.96L-53.00,3.61L-58.05,6.96L-56.44,1.12L-61.18,-2.66L-55.12,-2.92Z" fill="#fdba12"/>
<path d="M-45.90,-35.10L-43.78,-29.42L-37.72,-29.16L-42.46,-25.38L-40.84,-19.54L-45.90,-22.89L-50.95,-19.54L-49.33,-25.38L-54.08,-29.16L-48.02,-29.42Z" fill="#b22c1b"/>
<path d="M-26.50,-54.50L-24.38,-48.82L-18.32,-48.56L-23.06,-44.78L-21.45,-38.94L-26.50,-42.29L-31.55,-38.94L-29.94,-44.78L-34.68,-48.56L-28.62,-48.82Z" fill="#4c83c3"/>
<path d="M-26.72,-4.11Q-23.78,-4.23 -22.40,-5.39Q-21.02,-6.56 -21.02,-8.73Q-21.02,-10.35 -21.62,-15.15Q-21.68,-15.63 -21.98,-18.23Q-22.28,-20.85 -22.28,-22.95Q-22.28,-28.05 -19.16,-30.90Q-16.03,-33.75 -10.82,-33.75L-6.50,-33.75L-6.50,-25.35L-8.83,-25.35Q-10.76,-25.35 -11.60,-24.51Q-12.43,-23.66 -12.43,-21.93Q-12.43,-20.61 -11.96,-15.93Q-11.42,-10.11 -11.42,-8.31Q-11.42,-5.01 -13.02,-2.84Q-14.60,-0.68 -17.83,-0.08L-17.83,0.04Q-14.60,0.69 -13.02,2.82Q-11.42,4.95 -11.42,8.32Q-11.42,10.12 -11.96,15.94Q-12.43,20.49 -12.43,21.87Q-12.43,23.62 -11.60,24.48Q-10.76,25.35 -8.83,25.35L-6.50,25.35L-6.50,33.75L-10.82,33.75Q-16.03,33.75 -19.16,30.90Q-22.28,28.05 -22.28,22.89Q-22.28,20.79 -21.98,18.19Q-21.68,15.57 -21.62,15.09Q-21.02,10.29 -21.02,8.67Q-21.02,6.64 -22.40,5.41Q-23.78,4.17 -26.72,4.05L-26.72,-4.11" fill="#16365c"/><path d="M26.72,4.05Q23.79,4.17 22.40,5.41Q21.02,6.64 21.02,8.67Q21.02,10.29 21.62,15.09Q21.69,15.57 21.99,18.19Q22.29,20.79 22.29,22.89Q22.29,28.05 19.17,30.90Q16.04,33.75 10.82,33.75L6.50,33.75L6.50,25.35L8.84,25.35Q10.77,25.35 11.60,24.48Q12.44,23.62 12.44,21.87Q12.44,20.49 11.97,15.94Q11.42,10.12 11.42,8.32Q11.42,4.95 13.01,2.82Q14.60,0.69 17.84,0.04L17.84,-0.08Q14.60,-0.68 13.01,-2.84Q11.42,-5.01 11.42,-8.31Q11.42,-10.11 11.97,-15.93Q12.44,-20.61 12.44,-21.93Q12.44,-23.66 11.60,-24.51Q10.77,-25.35 8.84,-25.35L6.50,-25.35L6.50,-33.75L10.82,-33.75Q16.04,-33.75 19.17,-30.90Q22.29,-28.05 22.29,-22.95Q22.29,-20.85 21.99,-18.23Q21.69,-15.63 21.62,-15.15Q21.02,-10.35 21.02,-8.73Q21.02,-6.56 22.40,-5.39Q23.79,-4.23 26.72,-4.11L26.72,4.05" fill="#16365c"/>
</g>
<path d="M109.15,229.57Q109.15,231.10 108.96,232.77L84.19,232.77Q84.45,236.10 86.33,237.86Q88.22,239.62 90.98,239.62Q95.07,239.62 96.67,236.16L108.32,236.16Q107.42,239.68 105.08,242.50Q102.75,245.31 99.23,246.91Q95.71,248.51 91.36,248.51Q86.11,248.51 82.01,246.27Q77.92,244.03 75.61,239.87Q73.31,235.71 73.31,230.14Q73.31,224.58 75.58,220.42Q77.86,216.26 81.95,214.02Q86.05,211.78 91.36,211.78Q96.54,211.78 100.57,213.96Q104.61,216.13 106.88,220.16Q109.15,224.19 109.15,229.57M97.95,226.69Q97.95,223.87 96.03,222.21Q94.11,220.54 91.23,220.54Q88.48,220.54 86.59,222.14Q84.70,223.74 84.26,226.69L97.95,226.69M166.18,212.29L156.52,248.00L144.42,248.00L138.79,224.83L132.97,248.00L120.93,248.00L111.21,212.29L122.15,212.29L127.21,237.82L133.22,212.29L144.81,212.29L150.89,237.70L155.88,212.29L166.18,212.29M181.28,217.34Q182.88,214.85 185.69,213.32Q188.51,211.78 192.29,211.78Q196.71,211.78 200.29,214.02Q203.87,216.26 205.95,220.42Q208.03,224.58 208.03,230.08Q208.03,235.58 205.95,239.78Q203.87,243.97 200.29,246.24Q196.71,248.51 192.29,248.51Q188.58,248.51 185.73,246.98Q182.88,245.44 181.28,243.01L181.28,265.02L170.34,265.02L170.34,212.29L181.28,212.29L181.28,217.34M196.90,230.08Q196.90,225.98 194.62,223.65Q192.35,221.31 189.03,221.31Q185.76,221.31 183.49,223.68Q181.22,226.05 181.22,230.14Q181.22,234.24 183.49,236.61Q185.76,238.98 189.03,238.98Q192.29,238.98 194.59,236.58Q196.90,234.18 196.90,230.08M211.62,230.14Q211.62,224.58 213.89,220.42Q216.17,216.26 220.23,214.02Q224.29,211.78 229.54,211.78Q236.26,211.78 240.77,215.30Q245.29,218.82 246.69,225.22L235.05,225.22Q233.57,221.12 229.35,221.12Q226.34,221.12 224.55,223.46Q222.76,225.79 222.76,230.14Q222.76,234.50 224.55,236.84Q226.34,239.17 229.35,239.17Q233.57,239.17 235.05,235.07L246.69,235.07Q245.29,241.34 240.74,244.93Q236.20,248.51 229.54,248.51Q224.29,248.51 220.23,246.27Q216.17,244.03 213.89,239.87Q211.62,235.71 211.62,230.14" fill="#16365c"/>
</svg>