<svg viewBox="0 0 320 308" xmlns="http://www.w3.org/2000/svg" role="img" aria-label="EWPC logo">
<g transform="translate(160,94)">
  <path d="M0,-80.0 C-78.0,-68.0 -60,26.0 -14,76.0 L14,76.0 C60,26.0 78.0,-68.0 0,-80.0 Z" fill="#4c83c3"/>
  <path d="M0,-80.0 C-50.7,-68.0 -39,26.0 -9.5,76.0 L9.5,76.0 C39,26.0 50.7,-68.0 0,-80.0 Z" fill="#fdba12"/>
  <path d="M0,-80.0 C-22.75,-68.0 -17.5,26.0 -4.5,76.0 L4.5,76.0 C17.5,26.0 22.75,-68.0 0,-80.0 Z" fill="#b22c1b"/>
  <path d="M0.0,-32.5L4.1,-21.6L15.7,-21.1L6.6,-13.9L9.7,-2.7L0.0,-9.1L-9.7,-2.7L-6.6,-13.9L-15.7,-21.1L-4.1,-21.6Z M-29.0,-8.0L-27.0,-2.7L-21.4,-2.5L-25.8,1.0L-24.3,6.5L-29.0,3.4L-33.7,6.5L-32.2,1.0L-36.6,-2.5L-31.0,-2.7Z M29.0,-8.0L31.0,-2.7L36.6,-2.5L32.2,1.0L33.7,6.5L29.0,3.4L24.3,6.5L25.8,1.0L21.4,-2.5L27.0,-2.7Z" fill="#fff" stroke="#fff" stroke-width="2.5" stroke-linejoin="round"/>
  <path d="M-12.5,76.0 L12.5,76.0 L9.5,84.0 L-9.5,84.0 Z" fill="#1d3a5f"/>
  <path d="M-8.5,84.0 L-12.5,103.0 M8.5,84.0 L12.5,103.0" stroke="#1d3a5f" stroke-width="2.4" fill="none" stroke-linecap="round"/>
  <path d="M-16,123.0 L-17.5,105.0 L-8,112.0 L0,100.0 L8,112.0 L17.5,105.0 L16,123.0 Z" fill="#fdba12" stroke="#fdba12" stroke-width="2.5" stroke-linejoin="round"/>
  <circle cx="-17.5" cy="101.0" r="2.7" fill="#fdba12"/>
  <circle cx="0" cy="95.5" r="2.7" fill="#fdba12"/>
  <circle cx="17.5" cy="101.0" r="2.7" fill="#fdba12"/>
</g>
<g transform="translate(76.02197631835938,290)"><path d="M36.5,-17.9Q36.5,-16.4 36.3,-14.8L12.3,-14.8Q12.5,-11.5 14.3,-9.8Q16.2,-8.1 18.9,-8.1Q22.8,-8.1 24.4,-11.5L35.6,-11.5Q34.8,-8.1 32.5,-5.3Q30.3,-2.6 26.8,-1.1Q23.4,0.5 19.2,0.5Q14.1,0.5 10.2,-1.7Q6.2,-3.8 4.0,-7.9Q1.7,-11.9 1.7,-17.3Q1.7,-22.7 3.9,-26.7Q6.1,-30.7 10.1,-32.9Q14.1,-35.1 19.2,-35.1Q24.2,-35.1 28.1,-33.0Q32.1,-30.9 34.3,-27.0Q36.5,-23.1 36.5,-17.9M25.6,-20.6Q25.6,-23.4 23.7,-25.0Q21.9,-26.6 19.1,-26.6Q16.4,-26.6 14.6,-25.1Q12.8,-23.5 12.3,-20.6L25.6,-20.6M91.7,-34.6L82.3,0.0L70.6,0.0L65.2,-22.4L59.5,0.0L47.9,0.0L38.4,-34.6L49.0,-34.6L53.9,-9.9L59.8,-34.6L71.0,-34.6L76.9,-10.0L81.7,-34.6L91.7,-34.6M106.3,-29.7Q107.9,-32.1 110.6,-33.6Q113.3,-35.1 117.0,-35.1Q121.3,-35.1 124.7,-32.9Q128.2,-30.7 130.2,-26.7Q132.2,-22.7 132.2,-17.4Q132.2,-12.0 130.2,-8.0Q128.2,-3.9 124.7,-1.7Q121.3,0.5 117.0,0.5Q113.4,0.5 110.6,-1.0Q107.9,-2.5 106.3,-4.8L106.3,16.5L95.7,16.5L95.7,-34.6L106.3,-34.6L106.3,-29.7M121.5,-17.4Q121.5,-21.3 119.3,-23.6Q117.1,-25.9 113.8,-25.9Q110.7,-25.9 108.5,-23.6Q106.3,-21.3 106.3,-17.3Q106.3,-13.3 108.5,-11.0Q110.7,-8.7 113.8,-8.7Q117.0,-8.7 119.2,-11.1Q121.5,-13.4 121.5,-17.4M135.7,-17.3Q135.7,-22.7 137.9,-26.7Q140.1,-30.7 144.1,-32.9Q148.0,-35.1 153.1,-35.1Q159.6,-35.1 164.0,-31.7Q168.3,-28.3 169.7,-22.1L158.4,-22.1Q157.0,-26.0 152.9,-26.0Q150.0,-26.0 148.2,-23.8Q146.5,-21.5 146.5,-17.3Q146.5,-13.1 148.2,-10.8Q150.0,-8.6 152.9,-8.6Q157.0,-8.6 158.4,-12.5L169.7,-12.5Q168.3,-6.5 163.9,-3.0Q159.5,0.5 153.1,0.5Q148.0,0.5 144.1,-1.7Q140.1,-3.8 137.9,-7.9Q135.7,-11.9 135.7,-17.3" fill="#4c83c3"/></g>
</svg>