<svg viewBox="0 0 128 128" xmlns="http://www.w3.org/2000/svg" role="img" aria-label="EWPC">
<g transform="translate(64,64)">
<path d="M0.00,-61.60L2.12,-55.92L8.18,-55.66L3.44,-51.88L5.05,-46.04L0.00,-49.39L-5.05,-46.04L-3.44,-51.88L-8.18,-55.66L-2.12,-55.92Z" fill="#fdba12"/>
<path d="M26.50,-54.50L28.62,-48.82L34.68,-48.56L29.94,-44.78L31.55,-38.94L26.50,-42.29L21.45,-38.94L23.06,-44.78L18.32,-48.56L24.38,-48.82Z" fill="#b22c1b"/>
<path d="M45.90,-35.10L48.02,-29.42L54.08,-29.16L49.33,-25.38L50.95,-19.54L45.90,-22.89L40.84,-19.54L42.46,-25.38L37.72,-29.16L43.78,-29.42Z" fill="#4c83c3"/>
<path d="M53.00,-8.60L55.12,-2.92L61.18,-2.66L56.44,1.12L58.05,6.96L53.00,3.61L47.95,6.96L49.56,1.12L44.82,-2.66L50.88,-2.92Z" fill="#fdba12"/>
<path d="M45.90,17.90L48.02,23.58L54.08,23.84L49.33,27.62L50.95,33.46L45.90,30.11L40.84,33.46L42.46,27.62L37.72,23.84L43.78,23.58Z" fill="#b22c1b"/>
<path d="M26.50,37.30L28.62,42.98L34.68,43.24L29.94,47.02L31.55,52.86L26.50,49.51L21.45,52.86L23.06,47.02L18.32,43.24L24.38,42.98Z" fill="#4c83c3"/>
<path d="M0.00,44.40L2.12,50.08L8.18,50.34L3.44,54.12L5.05,59.96L0.00,56.61L-5.05,59.96L-3.44,54.12L-8.18,50.34L-2.12,50.08Z" fill="#fdba12"/>
<path d="M-26.50,37.30L-24.38,42.98L-18.32,43.24L-23.06,47.02L-21.45,52.86L-26.50,49.51L-31.55,52.86L-29.94,47.02L-34.68,43.24L-28.62,42.98Z" fill="#b22c1b"/>
<path d="M-45.90,17.90L-43.78,23.58L-37.72,23.84L-42.46,27.62L-40.84,33.46L-45.90,30.11L-50.95,33.46L-49.33,27.62L-54.08,23.84L-48.02,23.58Z" fill="#4c83c3"/>
<path d="M-53.00,-8.60L-50.88,-2.92L-44.82,-2.66L-49.56,1.12L-47.95,6.96L-53.00,3.61L-58.05,6.96L-56.44,1.12L-61.18,-2.66L-55.12,-2.92Z" fill="#fdba12"/>
<path d="M-45.90,-35.10L-43.78,-29.42L-37.72,-29.16L-42.46,-25.38L-40.84,-19.54L-45.90,-22.89L-50.95,-19.54L-49.33,-25.38L-54.08,-29.16L-48.02,-29.42Z" fill="#b22c1b"/>
<path d="M-26.50,-54.50L-24.38,-48.82L-18.32,-48.56L-23.06,-44.78L-21.45,-38.94L-26.50,-42.29L-31.55,-38.94L-29.94,-44.78L-34.68,-48.56L-28.62,-48.82Z" fill="#4c83c3"/>
<path d="M-26.72,-4.11Q-23.78,-4.23 -22.40,-5.39Q-21.02,-6.56 -21.02,-8.73Q-21.02,-10.35 -21.62,-15.15Q-21.68,-15.63 -21.98,-18.23Q-22.28,-20.85 -22.28,-22.95Q-22.28,-28.05 -19.16,-30.90Q-16.03,-33.75 -10.82,-33.75L-6.50,-33.75L-6.50,-25.35L-8.83,-25.35Q-10.76,-25.35 -11.60,-24.51Q-12.43,-23.66 -12.43,-21.93Q-12.43,-20.61 -11.96,-15.93Q-11.42,-10.11 -11.42,-8.31Q-11.42,-5.01 -13.02,-2.84Q-14.60,-0.68 -17.83,-0.08L-17.83,0.04Q-14.60,0.69 -13.02,2.82Q-11.42,4.95 -11.42,8.32Q-11.42,10.12 -11.96,15.94Q-12.43,20.49 -12.43,21.87Q-12.43,23.62 -11.60,24.48Q-10.76,25.35 -8.83,25.35L-6.50,25.35L-6.50,33.75L-10.82,33.75Q-16.03,33.75 -19.16,30.90Q-22.28,28.05 -22.28,22.89Q-22.28,20.79 -21.98,18.19Q-21.68,15.57 -21.62,15.09Q-21.02,10.29 -21.02,8.67Q-21.02,6.64 -22.40,5.41Q-23.78,4.17 -26.72,4.05L-26.72,-4.11" fill="#16365c"/><path d="M26.72,4.05Q23.79,4.17 22.40,5.41Q21.02,6.64 21.02,8.67Q21.02,10.29 21.62,15.09Q21.69,15.57 21.99,18.19Q22.29,20.79 22.29,22.89Q22.29,28.05 19.17,30.90Q16.04,33.75 10.82,33.75L6.50,33.75L6.50,25.35L8.84,25.35Q10.77,25.35 11.60,24.48Q12.44,23.62 12.44,21.87Q12.44,20.49 11.97,15.94Q11.42,10.12 11.42,8.32Q11.42,4.95 13.01,2.82Q14.60,0.69 17.84,0.04L17.84,-0.08Q14.60,-0.68 13.01,-2.84Q11.42,-5.01 11.42,-8.31Q11.42,-10.11 11.97,-15.93Q12.44,-20.61 12.44,-21.93Q12.44,-23.66 11.60,-24.51Q10.77,-25.35 8.84,-25.35L6.50,-25.35L6.50,-33.75L10.82,-33.75Q16.04,-33.75 19.17,-30.90Q22.29,-28.05 22.29,-22.95Q22.29,-20.85 21.99,-18.23Q21.69,-15.63 21.62,-15.15Q21.02,-10.35 21.02,-8.73Q21.02,-6.56 22.40,-5.39Q23.79,-4.23 26.72,-4.11L26.72,4.05" fill="#16365c"/>
</g>
</svg>