<svg viewBox="0 0 320 282" xmlns="http://www.w3.org/2000/svg" role="img" aria-label="EWPC logo">
<g transform="translate(160,98)">
<path d="M0.00,-61.60L2.12,-55.92L8.18,-55.66L3.44,-51.88L5.05,-46.04L0.00,-49.39L-5.05,-46.04L-3.44,-51.88L-8.18,-55.66L-2.12,-55.92Z" fill="#fdba12"/>
<path d="M26.50,-54.50L28.62,-48.82L34.68,-48.56L29.94,-44.78L31.55,-38.94L26.50,-42.29L21.45,-38.94L23.06,-44.78L18.32,-48.56L24.38,-48.82Z" fill="#b22c1b"/>
<path d="M45.90,-35.10L48.02,-29.42L54.08,-29.16L49.33,-25.38L50.95,-19.54L45.90,-22.89L40.84,-19.54L42.46,-25.38L37.72,-29.16L43.78,-29.42Z" fill="#4c83c3"/>
<path d="M53.00,-8.60L55.12,-2.92L61.18,-2.66L56.44,1.12L58.05,6.96L53.00,3.61L47.95,6.96L49.56,1.12L44.82,-2.66L50.88,-2.92Z" fill="#fdba12"/>
<path d="M45.90,17.90L48.02,23.58L54.08,23.84L49.33,27.62L50.95,33.46L45.90,30.11L40.84,33.46L42.46,27.62L37.72,23.84L43.78,23.58Z" fill="#b22c1b"/>
<path d="M26.50,37.30L28.62,42.98L34.68,43.24L29.94,47.02L31.55,52.86L26.50,49.51L21.45,52.86L23.06,47.02L18.32,43.24L24.38,42.98Z" fill="#4c83c3"/>
<path d="M0.00,44.40L2.12,50.08L8.18,50.34L3.44,54.12L5.05,59.96L0.00,56.61L-5.05,59.96L-3.44,54.12L-8.18,50.34L-2.12,50.08Z" fill="#fdba12"/>
<path d="M-26.50,37.30L-24.38,42.98L-18.32,43.24L-23.06,47.02L-21.45,52.86L-26.50,49.51L-31.55,52.86L-29.94,47.02L-34.68,43.24L-28.62,42.98Z" fill="#b22c1b"/>
<path d="M-45.90,17.90L-43.78,23.58L-37.72,23.84L-42.46,27.62L-40.84,33.46L-45.90,30.11L-50.95,33.46L-49.33,27.62L-54.08,23.84L-48.02,23.58Z" fill="#4c83c3"/>
<path d="M-53.00,-8.60L-50.88,-2.92L-44.82,-2.66L-49.56,1.12L-47.95,6.96L-53.00,3.61L-58.05,6.96L-56.44,1.12L-61.18,-2.66L-55.12,-2.92Z" fill="#fdba12"/>
<path d="M-45.90,-35.10L-43.78,-29.42L-37.72,-29.16L-42.46,-25.38L-40.84,-19.54L-45.90,-22.89L-50.95,-19.54L-49.33,-25.38L-54.08,-29.16L-48.02,-29.42Z" fill="#b22c1b"/>
<path d="M-26.50,-54.50L-24.38,-48.82L-18.32,-48.56L-23.06,-44.78L-21.45,-38.94L-26.50,-42.29L-31.55,-38.94L-29.94,-44.78L-34.68,-48.56L-28.62,-48.82Z" fill="#4c83c3"/>
<g transform="translate(-26.7,22)"><path d="M5.5,-25.2Q8.4,-25.3 9.8,-26.5Q11.2,-27.7 11.2,-29.8Q11.2,-31.4 10.6,-36.2Q10.5,-36.7 10.2,-39.3Q9.9,-41.9 9.9,-44.0Q9.9,-49.1 13.0,-52.0Q16.1,-54.8 21.4,-54.8L25.7,-54.8L25.7,-46.4L23.3,-46.4Q21.4,-46.4 20.6,-45.6Q19.7,-44.8 19.7,-43.0Q19.7,-41.7 20.2,-37.0Q20.8,-31.2 20.8,-29.4Q20.8,-26.1 19.2,-23.9Q17.6,-21.8 14.3,-21.2L14.3,-21.1Q17.6,-20.4 19.2,-18.3Q20.8,-16.1 20.8,-12.8Q20.8,-11.0 20.2,-5.2Q19.7,-0.6 19.7,0.8Q19.7,2.5 20.6,3.4Q21.4,4.3 23.3,4.3L25.7,4.3L25.7,12.7L21.4,12.7Q16.1,12.7 13.0,9.8Q9.9,7.0 9.9,1.8Q9.9,-0.3 10.2,-2.9Q10.5,-5.5 10.6,-6.0Q11.2,-10.8 11.2,-12.4Q11.2,-14.5 9.8,-15.7Q8.4,-16.9 5.5,-17.0L5.5,-25.2" fill="#16365c"/></g>
<g transform="translate(6.5,22)"><path d="M24.5,-17.0Q21.5,-16.9 20.2,-15.7Q18.8,-14.5 18.8,-12.4Q18.8,-10.8 19.4,-6.0Q19.4,-5.5 19.7,-2.9Q20.0,-0.3 20.0,1.8Q20.0,7.0 16.9,9.8Q13.8,12.7 8.6,12.7L4.3,12.7L4.3,4.3L6.6,4.3Q8.5,4.3 9.4,3.4Q10.2,2.5 10.2,0.8Q10.2,-0.6 9.7,-5.2Q9.2,-11.0 9.2,-12.8Q9.2,-16.1 10.8,-18.3Q12.4,-20.4 15.6,-21.1L15.6,-21.2Q12.4,-21.8 10.8,-23.9Q9.2,-26.1 9.2,-29.4Q9.2,-31.2 9.7,-37.0Q10.2,-41.7 10.2,-43.0Q10.2,-44.8 9.4,-45.6Q8.5,-46.4 6.6,-46.4L4.3,-46.4L4.3,-54.8L8.6,-54.8Q13.8,-54.8 16.9,-52.0Q20.0,-49.1 20.0,-44.0Q20.0,-41.9 19.7,-39.3Q19.4,-36.7 19.4,-36.2Q18.8,-31.4 18.8,-29.8Q18.8,-27.7 20.2,-26.5Q21.5,-25.3 24.5,-25.2L24.5,-17.0" fill="#16365c"/></g>
</g>
<g transform="translate(73.3,248)"><path d="M37.6,-18.4Q37.6,-16.9 37.4,-15.2L12.7,-15.2Q12.9,-11.9 14.8,-10.1Q16.7,-8.4 19.5,-8.4Q23.6,-8.4 25.2,-11.8L36.8,-11.8Q35.9,-8.3 33.6,-5.5Q31.2,-2.7 27.7,-1.1Q24.2,0.5 19.8,0.5Q14.6,0.5 10.5,-1.7Q6.4,-4.0 4.1,-8.1Q1.8,-12.3 1.8,-17.9Q1.8,-23.4 4.1,-27.6Q6.3,-31.7 10.4,-34.0Q14.5,-36.2 19.8,-36.2Q25.0,-36.2 29.1,-34.0Q33.1,-31.9 35.4,-27.8Q37.6,-23.8 37.6,-18.4M26.4,-21.3Q26.4,-24.1 24.5,-25.8Q22.6,-27.5 19.7,-27.5Q17.0,-27.5 15.1,-25.9Q13.2,-24.3 12.7,-21.3L26.4,-21.3M94.7,-35.7L85.0,0.0L72.9,0.0L67.3,-23.2L61.4,0.0L49.4,0.0L39.7,-35.7L50.6,-35.7L55.7,-10.2L61.7,-35.7L73.3,-35.7L79.4,-10.3L84.4,-35.7L94.7,-35.7M109.8,-30.7Q111.4,-33.1 114.2,-34.7Q117.0,-36.2 120.8,-36.2Q125.2,-36.2 128.8,-34.0Q132.3,-31.7 134.4,-27.6Q136.5,-23.4 136.5,-17.9Q136.5,-12.4 134.4,-8.2Q132.3,-4.0 128.8,-1.8Q125.2,0.5 120.8,0.5Q117.1,0.5 114.2,-1.0Q111.4,-2.6 109.8,-5.0L109.8,17.0L98.8,17.0L98.8,-35.7L109.8,-35.7L109.8,-30.7M125.4,-17.9Q125.4,-22.0 123.1,-24.4Q120.8,-26.7 117.5,-26.7Q114.2,-26.7 112.0,-24.3Q109.7,-21.9 109.7,-17.9Q109.7,-13.8 112.0,-11.4Q114.2,-9.0 117.5,-9.0Q120.8,-9.0 123.1,-11.4Q125.4,-13.8 125.4,-17.9M140.1,-17.9Q140.1,-23.4 142.4,-27.6Q144.6,-31.7 148.7,-34.0Q152.8,-36.2 158.0,-36.2Q164.7,-36.2 169.2,-32.7Q173.8,-29.2 175.2,-22.8L163.5,-22.8Q162.0,-26.9 157.8,-26.9Q154.8,-26.9 153.0,-24.5Q151.2,-22.2 151.2,-17.9Q151.2,-13.5 153.0,-11.2Q154.8,-8.8 157.8,-8.8Q162.0,-8.8 163.5,-12.9L175.2,-12.9Q173.8,-6.7 169.2,-3.1Q164.7,0.5 158.0,0.5Q152.8,0.5 148.7,-1.7Q144.6,-4.0 142.4,-8.1Q140.1,-12.3 140.1,-17.9" fill="#16365c"/></g>
</svg>