<svg width="148" height="122" viewBox="0 0 148 122" fill="none" xmlns="http://www.w3.org/2000/svg">
<path d="M136 71.3H12V72.55H136V71.3Z" fill="white"/>
<mask id="mask0_14512_111751" style="mask-type:luminance" maskUnits="userSpaceOnUse" x="11" y="11" width="126" height="50">
<path d="M137 11H11V60.6731H137V11Z" fill="white"/>
</mask>
<g mask="url(#mask0_14512_111751)">
<path d="M86.4852 31.3864C87.5362 31.3864 88.3296 30.9426 88.8669 30.3354V27.9305C86.9288 28.0475 85.0382 28.5377 85.0382 30.1256C85.0382 30.8727 85.6211 31.3864 86.4852 31.3864ZM88.8669 26.0389V24.942C88.8669 24.008 88.3296 23.4475 87.1393 23.4475C85.9487 23.4475 84.6876 23.9381 83.146 24.6847L81.932 22.1633C83.6133 21.3226 85.5747 20.7385 87.2794 20.7385C90.8747 20.7385 92.2758 22.4904 92.2758 25.0587V30.2886C92.2758 30.9657 92.6735 31.2697 93.3034 31.2697V33.6278C90.9451 33.6278 89.9642 33.2775 89.2634 32.0868C88.2132 33.2076 87.0452 33.8381 85.3642 33.8381C83.1701 33.8381 81.6289 32.5069 81.6289 30.5224C81.6289 27.7898 84.2203 26.3661 88.8669 26.0389Z" fill="white"/>
<path d="M95.418 21.0195H98.6405L98.8039 22.4669C99.7148 21.5097 101.045 20.7153 102.61 20.7153C105.412 20.7153 106.603 22.4438 106.603 25.2689V33.558H103.17V25.1754C103.17 24.0547 102.704 23.2841 101.536 23.2841C100.485 23.2841 99.5743 23.8207 98.8272 24.7551V33.558H95.418V21.0195Z" fill="white"/>
<path d="M75.7317 17.2129V28.0938C75.7317 29.775 74.9146 30.7324 73.4905 30.7324C72.536 30.7324 71.7854 30.2643 71.1987 29.469L68.8555 31.5912C70.0641 33.0472 71.701 33.8381 73.6776 33.8381C77.0865 33.8381 79.2577 31.9002 79.2577 28.1642V17.2129H75.7317Z" fill="white"/>
<path d="M75.3643 44.1663C73.5717 43.7126 72.0231 43.3209 72.0231 41.9887C72.0231 40.8764 73.0842 40.1291 74.6631 40.1291C76.1456 40.1291 77.6708 40.4919 79.0821 41.1789L80.3124 38.5646C78.3821 37.6638 76.4786 37.2256 74.4974 37.2256C70.9834 37.2256 68.5294 39.2035 68.5294 42.0354C68.5294 45.6315 71.4752 46.3977 74.074 47.0739C75.8958 47.5478 77.4689 47.957 77.4689 49.3203C77.4689 50.5148 76.4199 51.2277 74.6631 51.2277C73.1417 51.2277 71.4281 50.7132 69.8282 49.7768L68.2383 52.3833C69.9842 53.4471 72.5017 54.1312 74.6865 54.1312C78.5584 54.1312 80.9638 52.2696 80.9638 49.2737C80.9638 45.5826 77.8596 44.7971 75.3643 44.1663Z" fill="white"/>
<path d="M83.7309 43.7381H81.7461V41.3096H83.7309V38.1809H87.1632V41.3096H89.9697V43.7381H87.1632V49.9724C87.1632 50.9062 87.5134 51.3736 88.3075 51.3736C88.9382 51.3736 89.5219 51.1634 90.0121 50.8129L91.2736 52.8677C90.3153 53.6147 88.9845 54.1288 87.6075 54.1288C84.992 54.1288 83.7309 52.8444 83.7309 50.0425V43.7381Z" fill="white"/>
<path d="M92.8281 41.3095H95.9814L96.2137 43.2476C97.172 41.5661 98.3623 40.9592 99.7864 40.9592C100.37 40.9592 100.907 41.0527 101.328 41.2161L100.837 44.3453C100.394 44.1814 99.8564 44.0644 99.1556 44.0644C97.8712 44.0644 97.0078 44.859 96.2382 46.3067V53.8485H92.8281V41.3095Z" fill="white"/>
<path d="M129.458 43.7381H127.473V41.3096H129.458V38.1809H132.89V41.3096H135.696V43.7381H132.89V49.9724C132.89 50.9062 133.24 51.3736 134.034 51.3736C134.664 51.3736 135.247 51.1634 135.738 50.8129L136.999 52.8677C136.042 53.6147 134.711 54.1288 133.334 54.1288C130.718 54.1288 129.458 52.8444 129.458 50.0425V43.7381Z" fill="white"/>
<path d="M115.031 23.1613C116.666 23.1613 117.273 24.3752 117.273 25.9636H112.206C112.533 24.1424 113.631 23.1613 115.031 23.1613ZM114.938 20.6855C111.459 20.6855 108.656 23.1613 108.656 27.1777C108.656 31.3805 111.272 33.8322 114.961 33.8322C116.829 33.8322 118.581 33.2718 120.122 32.1975L118.697 30.0263C117.647 30.6796 116.479 31.1006 115.218 31.1006C113.485 31.1006 112.498 30.2148 112.202 28.4309H120.286C120.38 27.8974 120.518 27.3361 120.518 26.4071C120.518 23.0446 118.534 20.6855 114.938 20.6855Z" fill="white"/>
<path d="M121.001 43.4578C122.634 43.4578 123.241 44.6715 123.241 46.2598H118.175C118.502 44.4391 119.599 43.4578 121.001 43.4578ZM120.907 40.9819C117.427 40.9819 114.625 43.4578 114.625 47.4742C114.625 51.6769 117.241 54.1286 120.93 54.1286C122.798 54.1286 124.55 53.5683 126.091 52.494L124.666 50.3224C123.615 50.9761 122.448 51.3971 121.187 51.3971C119.453 51.3971 118.468 50.5111 118.171 48.7274H126.255C126.349 48.1939 126.487 47.6323 126.487 46.7036C126.487 43.3408 124.503 40.9819 120.907 40.9819Z" fill="white"/>
<path d="M107.894 43.4576C109.529 43.4576 110.135 44.6713 110.135 46.2596H105.069C105.395 44.4387 106.493 43.4576 107.894 43.4576ZM107.801 40.9817C104.321 40.9817 101.52 43.4576 101.52 47.474C101.52 51.6766 104.135 54.1283 107.824 54.1283C109.692 54.1283 111.444 53.568 112.985 52.4937L111.56 50.3222C110.51 50.9759 109.342 51.3968 108.081 51.3968C106.348 51.3968 105.361 50.5108 105.065 48.7272H113.149C113.243 48.1937 113.381 47.6321 113.381 46.7034C113.381 43.3406 111.397 40.9817 107.801 40.9817Z" fill="white"/>
<path d="M18.8626 45.0949C22.2262 50.83 28.4601 54.6839 35.5742 54.6649C46.218 54.6357 54.8536 45.9533 54.8248 35.3089C54.796 24.6653 46.1129 16.0297 35.4689 16.0589C24.8253 16.0876 16.1898 24.7704 16.2188 35.4138C16.2225 36.7084 16.3585 37.9719 16.6064 39.195C16.6473 39.3526 16.808 39.4382 16.9596 39.4005L19.6458 38.7314C19.7996 38.6922 19.9077 38.5422 19.8704 38.3799C19.685 37.416 19.5854 36.4219 19.5825 35.4046C19.5589 26.6162 26.6896 19.4463 35.4782 19.4226C44.2671 19.3989 51.4369 26.5295 51.461 35.318C51.4847 44.1069 44.3539 51.2773 35.5649 51.3007C29.7444 51.3167 24.6378 48.1917 21.8431 43.528C21.7678 43.3885 21.5949 43.3226 21.4473 43.3971L18.9889 44.6959C18.8451 44.7716 18.7816 44.9543 18.8626 45.0949Z" fill="white"/>
<path d="M45.6803 39.5311L48.1318 40.8458C48.2765 40.9218 48.4693 40.876 48.5303 40.7235C49.2033 39.1037 49.5834 37.3338 49.5992 35.479C49.6635 27.7165 43.4005 21.3483 35.6377 21.2833L35.5186 21.2827C27.8209 21.2827 21.5064 27.5457 21.4419 35.2434C21.377 43.0069 27.6395 49.3753 35.4025 49.4402L35.5218 49.441C39.1978 49.441 42.5567 48.0104 45.0718 45.6797C45.195 45.572 45.2204 45.382 45.1056 45.2589L43.0141 43.3732C42.8943 43.2645 42.7093 43.2842 42.5965 43.3879C40.705 45.0586 38.2265 46.0767 35.5218 46.0767L35.4306 46.0763C29.5226 46.0269 24.7563 41.1799 24.8057 35.272C24.8547 29.4133 29.6603 24.647 35.5186 24.647L35.6098 24.6472C41.5179 24.6967 46.2844 29.5435 46.2352 35.4509C46.2244 36.7433 45.9794 37.9808 45.5453 39.1273C45.4804 39.2884 45.538 39.4475 45.6803 39.5311Z" fill="white"/>
<path d="M49.6977 15.3593C49.5669 15.2702 49.3843 15.2966 49.2934 15.4313L47.7243 17.7071C47.6337 17.8386 47.646 18.025 47.7791 18.1211C53.1688 21.9617 56.6935 28.2569 56.6919 35.3649C56.6903 47.034 47.1966 56.5259 35.5269 56.5252C23.8562 56.5252 14.3631 47.031 14.3643 35.3588C14.3659 23.6911 23.8594 14.1986 35.5306 14.2013C38.0707 14.199 40.5054 14.6558 42.7648 15.4799V15.4776C42.9101 15.5317 43.0771 15.4605 43.139 15.3083L44.1275 12.7126C44.1829 12.5675 44.1132 12.4017 43.9699 12.3391C41.3362 11.3706 38.495 10.8364 35.5306 10.8364C22.0066 10.8337 11.0017 21.8358 11 35.3603C10.9992 48.8841 22.0028 59.8889 35.5263 59.8893C49.0504 59.8901 60.0549 48.8886 60.0557 35.3659C60.0549 27.115 55.9604 19.8079 49.6977 15.3593Z" fill="white"/>
</g>
<path d="M51.0926 85.9789V83.9349H52.3366V85.9789H53.5056V86.9839H52.3366V91.7619C52.3366 92.0173 52.4232 92.1883 52.5966 92.2749C52.6919 92.3249 52.8512 92.3499 53.0746 92.3499C53.1339 92.3499 53.1979 92.3486 53.2666 92.3459C53.3346 92.3439 53.4142 92.3383 53.5056 92.3289V93.2999C53.3642 93.3413 53.2172 93.3709 53.0646 93.3889C52.9119 93.4069 52.7466 93.4159 52.5686 93.4159C51.9946 93.4159 51.6049 93.2689 51.3996 92.9749C51.1949 92.6809 51.0926 92.2993 51.0926 91.8299V86.9839H50.1016V85.9789H51.0926ZM54.7356 93.2999V86.0129H55.9866V93.2999H54.7356ZM55.3516 84.7349C55.2009 84.7349 55.0606 84.7166 54.9306 84.6799C54.8006 84.6433 54.6902 84.5909 54.5996 84.5229C54.5082 84.4543 54.4362 84.3743 54.3836 84.2829C54.3316 84.1923 54.3056 84.0923 54.3056 83.9829C54.3056 83.8689 54.3329 83.7616 54.3876 83.6609C54.4422 83.5609 54.5162 83.4746 54.6096 83.4019C54.7029 83.3286 54.8132 83.2716 54.9406 83.2309C55.0686 83.1896 55.2056 83.1689 55.3516 83.1689C55.4969 83.1689 55.6322 83.1896 55.7576 83.2309C55.8829 83.2716 55.9922 83.3286 56.0856 83.4019C56.1796 83.4746 56.2539 83.5609 56.3086 83.6609C56.3632 83.7616 56.3906 83.8689 56.3906 83.9829C56.3906 84.0923 56.3642 84.1923 56.3116 84.2829C56.2589 84.3743 56.1872 84.4543 56.0966 84.5229C56.0052 84.5909 55.8959 84.6433 55.7686 84.6799C55.6406 84.7166 55.5016 84.7349 55.3516 84.7349ZM54.7356 93.2999V86.0129H55.9866V93.2999H54.7356ZM58.0926 85.9789V83.9349H59.3366V85.9789H60.5056V86.9839H59.3366V91.7619C59.3366 92.0173 59.4232 92.1883 59.5966 92.2749C59.6919 92.3249 59.8512 92.3499 60.0746 92.3499C60.1339 92.3499 60.1979 92.3486 60.2666 92.3459C60.3346 92.3439 60.4142 92.3383 60.5056 92.3289V93.2999C60.3642 93.3413 60.2172 93.3709 60.0646 93.3889C59.9119 93.4069 59.7466 93.4159 59.5686 93.4159C58.9946 93.4159 58.6049 93.2689 58.3996 92.9749C58.1949 92.6809 58.0926 92.2993 58.0926 91.8299V86.9839H57.1016V85.9789H58.0926ZM63.9916 92.4999C64.4249 92.4999 64.8442 92.3996 65.2496 92.1989C65.9329 91.8663 66.2746 91.3219 66.2746 90.5659V89.5739C66.1246 89.6699 65.9309 89.7499 65.6936 89.8139C65.4569 89.8773 65.2246 89.9226 64.9966 89.9499L64.2516 90.0459C63.8049 90.1053 63.4699 90.1986 63.2466 90.3259C62.8686 90.5406 62.6796 90.8826 62.6796 91.3519C62.6796 91.7073 62.8092 91.9876 63.0686 92.1929C63.3286 92.3976 63.6362 92.4999 63.9916 92.4999ZM63.6976 89.1099L65.6596 88.8629C65.9422 88.8269 66.1316 88.7086 66.2276 88.5079C66.2822 88.3986 66.3096 88.2413 66.3096 88.0359C66.3096 87.6166 66.1602 87.3126 65.8616 87.1239C65.5629 86.9346 65.1356 86.8399 64.5796 86.8399C63.9369 86.8399 63.4812 87.0133 63.2126 87.3599C63.0619 87.5513 62.9639 87.8359 62.9186 88.2139H61.7706C61.7932 87.3119 62.0859 86.6843 62.6486 86.3309C63.2112 85.9776 63.8639 85.8009 64.6066 85.8009C65.4679 85.8009 66.1676 85.9649 66.7056 86.2929C67.2389 86.6209 67.5056 87.1313 67.5056 87.8239V92.0419C67.5056 92.1699 67.5316 92.2726 67.5836 92.3499C67.6362 92.4273 67.7469 92.4659 67.9156 92.4659C67.9702 92.4659 68.0319 92.4626 68.1006 92.4559C68.1686 92.4493 68.2412 92.4389 68.3186 92.4249V93.3339C68.1272 93.3886 67.9816 93.4229 67.8816 93.4369C67.7809 93.4503 67.6442 93.4569 67.4716 93.4569C67.0476 93.4569 66.7399 93.3066 66.5486 93.0059C66.4479 92.8466 66.3772 92.6209 66.3366 92.3289C66.0859 92.6569 65.7259 92.9419 65.2566 93.1839C64.7872 93.4253 64.2699 93.5459 63.7046 93.5459C63.0259 93.5459 62.4712 93.3396 62.0406 92.9269C61.6099 92.5149 61.3946 91.9989 61.3946 91.3789C61.3946 90.7003 61.6062 90.1739 62.0296 89.7999C62.4536 89.4259 63.0096 89.1959 63.6976 89.1099ZM69.5216 93.2999V85.9789H70.6906V87.0179C71.0372 86.5893 71.4042 86.2816 71.7916 86.0949C72.1789 85.9083 72.6096 85.8149 73.0836 85.8149C74.1229 85.8149 74.8246 86.1773 75.1886 86.9019C75.3892 87.2979 75.4896 87.8653 75.4896 88.6039V93.2999H74.2386V88.6859C74.2386 88.2393 74.1726 87.8793 74.0406 87.6059C73.8219 87.1499 73.4256 86.9219 72.8516 86.9219C72.5596 86.9219 72.3202 86.9516 72.1336 87.0109C71.7962 87.1109 71.4999 87.3116 71.2446 87.6129C71.0399 87.8543 70.9066 88.1036 70.8446 88.3609C70.7832 88.6183 70.7526 88.9863 70.7526 89.4649V93.2999H69.5216ZM77.3086 93.2999V86.0129H78.5596V93.2999H77.3086ZM77.9236 84.7349C77.7729 84.7349 77.6326 84.7166 77.5026 84.6799C77.3732 84.6433 77.2629 84.5909 77.1716 84.5229C77.0802 84.4543 77.0086 84.3743 76.9566 84.2829C76.9039 84.1923 76.8776 84.0923 76.8776 83.9829C76.8776 83.8689 76.9049 83.7616 76.9596 83.6609C77.0142 83.5609 77.0882 83.4746 77.1816 83.4019C77.2749 83.3286 77.3856 83.2716 77.5136 83.2309C77.6409 83.1896 77.7776 83.1689 77.9236 83.1689C78.0696 83.1689 78.2052 83.1896 78.3306 83.2309C78.4559 83.2716 78.5652 83.3286 78.6586 83.4019C78.7519 83.4746 78.8259 83.5609 78.8806 83.6609C78.9352 83.7616 78.9626 83.8689 78.9626 83.9829C78.9626 84.0923 78.9362 84.1923 78.8836 84.2829C78.8316 84.3743 78.7599 84.4543 78.6686 84.5229C78.5772 84.5909 78.4679 84.6433 78.3406 84.6799C78.2126 84.7166 78.0736 84.7349 77.9236 84.7349ZM77.3086 93.2999V86.0129H78.5596V93.2999H77.3086ZM80.3916 85.9789H81.6486V90.8389C81.6486 91.2129 81.7079 91.5183 81.8266 91.7549C82.0452 92.1923 82.4532 92.4109 83.0506 92.4109C83.9072 92.4109 84.4906 92.0283 84.8006 91.2629C84.9692 90.8529 85.0536 90.2899 85.0536 89.5739V85.9789H86.2836V93.2999H85.1216L85.1356 92.2199C84.9756 92.4979 84.7772 92.7326 84.5406 92.9239C84.0712 93.3066 83.5016 93.4979 82.8316 93.4979C81.7882 93.4979 81.0772 93.1493 80.6986 92.4519C80.4939 92.0786 80.3916 91.5796 80.3916 90.9549V85.9789ZM88.2046 93.2999V85.9789H89.4216V87.0179C89.7129 86.6579 89.9772 86.3959 90.2146 86.2319C90.6199 85.9539 91.0802 85.8149 91.5956 85.8149C92.1789 85.8149 92.6482 85.9583 93.0036 86.2449C93.2042 86.4089 93.3866 86.6506 93.5506 86.9699C93.8239 86.5779 94.1452 86.2873 94.5146 86.0979C94.8832 85.9093 95.2979 85.8149 95.7586 85.8149C96.7426 85.8149 97.4126 86.1703 97.7686 86.8809C97.9599 87.2636 98.0556 87.7786 98.0556 88.4259V93.2999H96.7766V88.2139C96.7766 87.7266 96.6549 87.3916 96.4116 87.2089C96.1676 87.0269 95.8702 86.9359 95.5196 86.9359C95.0362 86.9359 94.6202 87.0976 94.2716 87.4209C93.9229 87.7443 93.7486 88.2843 93.7486 89.0409V93.2999H92.4976V88.5219C92.4976 88.0253 92.4382 87.6629 92.3196 87.4349C92.1329 87.0929 91.7842 86.9219 91.2736 86.9219C90.8089 86.9219 90.3862 87.1019 90.0056 87.4619C89.6256 87.8219 89.4356 88.4736 89.4356 89.4169V93.2999H88.2046Z" fill="white"/>
<path d="M49.6289 105.003H50.8119C50.8479 105.413 50.9502 105.727 51.1189 105.946C51.4289 106.343 51.9666 106.541 52.7319 106.541C53.1879 106.541 53.5892 106.442 53.9359 106.244C54.2819 106.045 54.4549 105.739 54.4549 105.324C54.4549 105.01 54.3159 104.771 54.0379 104.607C53.8599 104.506 53.5089 104.39 52.9849 104.258L52.0079 104.012C51.3832 103.857 50.9229 103.683 50.6269 103.492C50.0982 103.159 49.8339 102.699 49.8339 102.112C49.8339 101.419 50.0832 100.858 50.5819 100.43C51.0812 100.001 51.7526 99.7871 52.5959 99.7871C53.6986 99.7871 54.4936 100.111 54.9809 100.758C55.2862 101.168 55.4346 101.61 55.4259 102.084H54.2639C54.2406 101.806 54.1426 101.553 53.9699 101.325C53.6872 101.002 53.1972 100.84 52.4999 100.84C52.0352 100.84 51.6832 100.929 51.4439 101.107C51.2046 101.284 51.0849 101.519 51.0849 101.811C51.0849 102.13 51.2422 102.385 51.5569 102.576C51.7389 102.69 52.0076 102.79 52.3629 102.877L53.1769 103.075C54.0609 103.29 54.6532 103.497 54.9539 103.697C55.4326 104.012 55.6719 104.506 55.6719 105.181C55.6719 105.832 55.4246 106.395 54.9299 106.869C54.4352 107.343 53.6822 107.58 52.6709 107.58C51.5816 107.58 50.8102 107.333 50.3569 106.839C49.9036 106.344 49.6609 105.732 49.6289 105.003ZM62.1729 103.595C62.1729 103.012 62.0886 102.51 61.9199 102.091C61.6006 101.284 61.0172 100.881 60.1699 100.881C59.3179 100.881 58.7346 101.307 58.4199 102.159C58.2512 102.615 58.1669 103.194 58.1669 103.896C58.1669 104.461 58.2512 104.941 58.4199 105.338C58.7386 106.095 59.3219 106.473 60.1699 106.473C60.7439 106.473 61.2212 106.233 61.6019 105.752C61.9826 105.271 62.1729 104.552 62.1729 103.595ZM56.9839 110.219V100.013H58.1809V100.984C58.4269 100.651 58.6956 100.394 58.9869 100.211C59.4016 99.9378 59.8892 99.8011 60.4499 99.8011C61.2792 99.8011 61.9832 100.119 62.5619 100.755C63.1412 101.39 63.4309 102.298 63.4309 103.479C63.4309 105.074 63.0139 106.213 62.1799 106.897C61.6512 107.33 61.0359 107.546 60.3339 107.546C59.7826 107.546 59.3199 107.425 58.9459 107.184C58.7272 107.047 58.4836 106.813 58.2149 106.48V110.219H56.9839ZM69.9039 103.52C69.9039 102.836 69.7946 102.28 69.5759 101.852C69.2299 101.177 68.6329 100.84 67.7849 100.84C67.0329 100.84 66.4862 101.127 66.1449 101.701C65.8029 102.276 65.6319 102.968 65.6319 103.779C65.6319 104.558 65.8029 105.208 66.1449 105.728C66.4862 106.247 67.0282 106.507 67.7709 106.507C68.5869 106.507 69.1466 106.198 69.4499 105.581C69.7526 104.963 69.9039 104.276 69.9039 103.52ZM71.1889 103.486C71.1889 104.666 70.9019 105.641 70.3279 106.411C69.7539 107.182 68.8629 107.567 67.6549 107.567C66.6482 107.567 65.8486 107.226 65.2559 106.545C64.6632 105.864 64.3669 104.949 64.3669 103.8C64.3669 102.569 64.6792 101.59 65.3039 100.861C65.9279 100.132 66.7662 99.7671 67.8189 99.7671C68.7622 99.7671 69.5599 100.081 70.2119 100.71C70.8632 101.339 71.1889 102.265 71.1889 103.486ZM72.6519 107.3V99.9791H73.8209V101.018C74.1676 100.589 74.5346 100.282 74.9219 100.095C75.3092 99.9084 75.7399 99.8151 76.2139 99.8151C77.2526 99.8151 77.9542 100.177 78.3189 100.902C78.5196 101.298 78.6199 101.865 78.6199 102.604V107.3H77.3689V102.686C77.3689 102.239 77.3029 101.879 77.1709 101.606C76.9522 101.15 76.5556 100.922 75.9809 100.922C75.6896 100.922 75.4506 100.952 75.2639 101.011C74.9266 101.111 74.6302 101.312 74.3749 101.613C74.1696 101.854 74.0362 102.104 73.9749 102.361C73.9136 102.618 73.8829 102.986 73.8829 103.465V107.3H72.6519ZM79.9869 105.003H81.1699C81.2066 105.413 81.3092 105.727 81.4779 105.946C81.7872 106.343 82.3249 106.541 83.0909 106.541C83.5462 106.541 83.9472 106.442 84.2939 106.244C84.6399 106.045 84.8129 105.739 84.8129 105.324C84.8129 105.01 84.6739 104.771 84.3959 104.607C84.2186 104.506 83.8679 104.39 83.3439 104.258L82.3659 104.012C81.7419 103.857 81.2816 103.683 80.9849 103.492C80.4562 103.159 80.1919 102.699 80.1919 102.112C80.1919 101.419 80.4416 100.858 80.9409 100.43C81.4396 100.001 82.1106 99.7871 82.9539 99.7871C84.0566 99.7871 84.8519 100.111 85.3399 100.758C85.6452 101.168 85.7932 101.61 85.7839 102.084H84.6219C84.5992 101.806 84.5012 101.553 84.3279 101.325C84.0452 101.002 83.5552 100.84 82.8579 100.84C82.3932 100.84 82.0412 100.929 81.8019 101.107C81.5626 101.284 81.4429 101.519 81.4429 101.811C81.4429 102.13 81.6002 102.385 81.9149 102.576C82.0969 102.69 82.3659 102.79 82.7219 102.877L83.5349 103.075C84.4189 103.29 85.0112 103.497 85.3119 103.697C85.7906 104.012 86.0299 104.506 86.0299 105.181C86.0299 105.832 85.7829 106.395 85.2889 106.869C84.7942 107.343 84.0409 107.58 83.0289 107.58C81.9396 107.58 81.1682 107.333 80.7149 106.839C80.2616 106.344 80.0189 105.732 79.9869 105.003ZM92.4769 103.52C92.4769 102.836 92.3672 102.28 92.1479 101.852C91.8019 101.177 91.2049 100.84 90.3569 100.84C89.6049 100.84 89.0582 101.127 88.7169 101.701C88.3749 102.276 88.2039 102.968 88.2039 103.779C88.2039 104.558 88.3749 105.208 88.7169 105.728C89.0582 106.247 89.6006 106.507 90.3439 106.507C91.1592 106.507 91.7186 106.198 92.0219 105.581C92.3252 104.963 92.4769 104.276 92.4769 103.52ZM93.7619 103.486C93.7619 104.666 93.4746 105.641 92.8999 106.411C92.3259 107.182 91.4352 107.567 90.2279 107.567C89.2206 107.567 88.4206 107.226 87.8279 106.545C87.2352 105.864 86.9389 104.949 86.9389 103.8C86.9389 102.569 87.2512 101.59 87.8759 100.861C88.4999 100.132 89.3386 99.7671 90.3919 99.7671C91.3352 99.7671 92.1326 100.081 92.7839 100.71C93.4359 101.339 93.7619 102.265 93.7619 103.486ZM95.2589 107.3V99.9791H96.4279V101.243C96.5232 100.997 96.7579 100.697 97.1319 100.344C97.5052 99.9914 97.9359 99.8151 98.4239 99.8151C98.4466 99.8151 98.4852 99.8171 98.5399 99.8211C98.5946 99.8258 98.6879 99.8351 98.8199 99.8491V101.148C98.7472 101.134 98.6802 101.125 98.6189 101.12C98.5569 101.115 98.4896 101.113 98.4169 101.113C97.7969 101.113 97.3206 101.313 96.9879 101.712C96.6552 102.111 96.4889 102.57 96.4889 103.089V107.3H95.2589Z" fill="white"/>
</svg>
